<svg viewBox="0 0 540 367" xmlns="http://www.w3.org/2000/svg" class=""><path d="M171.3 213.6h-39c-4.4 0-8 3.6-8 8v81c0 4.4 3.6 8 8 8h34c4.4 0 8-3.6 8-8v-62m215.5-49.5h-87.5c-3.2 0-5.8-2.6-5.8-5.8v-120c0-3.2 2.6-5.8 5.8-5.8h87.5c3.2 0 5.8 2.6 5.8 5.8v120c-.1 3.2-2.7 5.8-5.8 5.8z" fill="#fff"></path><path d="M141 223.6h42" fill="none" stroke="#0388ca" stroke-width="2" stroke-miterlimit="10"></path><path d="M388 179.6h-83v-113h19.8v5h43.8v-5H388z" fill="#fff"></path><path d="M379 105.6h-44m44 5h-44m35 5h-35m44 11h-44m44 5h-44m9 5h-9m23 22h-23m44-10h-44m44 5h-44" fill="none" stroke="#0388ca" stroke-width="2" stroke-miterlimit="10"></path><path d="M187 139.6h-48c-2.2 0-4-1.8-4-4v-48c0-2.2 1.8-4 4-4h48c2.2 0 4 1.8 4 4v48c0 2.2-1.8 4-4 4zm141 168h-5V318c0 1.8-2.1 2.7-3.4 1.5L307 307.6h-32c-5.5 0-10-4.5-10-10v-24c0-5.5 4.5-10 10-10h53c5.5 0 10 4.5 10 10v24c0 5.5-4.5 10-10 10z" fill="#ffd400"></path><path d="M460.3 140.9l-1.1.2.4 2.2c.1.4-.3.6-.6.4l-3.2-2-6.7 1.3c-1.2.2-2.3-.5-2.5-1.7l-1-5c-.2-1.2.5-2.3 1.7-2.5l11.1-2.2c1.2-.2 2.3.5 2.5 1.7l1 5c.3 1.2-.5 2.3-1.6 2.6zm-396 118l1.1.2-.4 2.2c-.1.4.3.6.6.4l3.2-2 6.7 1.3c1.2.2 2.3-.5 2.5-1.7l1-5c.2-1.2-.5-2.3-1.7-2.5l-11.1-2.2c-1.2-.2-2.3.5-2.5 1.7l-1 5c-.3 1.2.4 2.3 1.6 2.6z" fill="#0388ca"></path><path d="M329 249.1H171c-5.5 0-10-4.5-10-10v-126c0-5.5 4.5-10 10-10h158c5.5 0 10 4.5 10 10v126c0 5.5-4.5 10-10 10z" fill="#fff" stroke="#000" stroke-width="2" stroke-miterlimit="10"></path><path d="M171 104.1h23v30h-32v-21c0-5 4-9 9-9z"></path><path d="M339 133.6H162" fill="none" stroke="#000" stroke-width="2" stroke-miterlimit="10"></path><path d="M250 119.6h69m-113 0h36" fill="none" stroke="#0388ca" stroke-width="2" stroke-miterlimit="10"></path><path d="M182 113.6l-11.5 11.5m0-11.5l11.5 11.5" fill="none" stroke-width="2" stroke-miterlimit="10" stroke="#fff"></path><circle cx="350.5" cy="283.6" r="2" fill="#ffd400"></circle><circle cx="371" cy="282.6" r="2" fill="#ffd400"></circle><circle cx="361" cy="283.6" r="2" fill="#ffd400"></circle><circle cx="375" cy="274.6" r="2" fill="#ffd400"></circle><circle cx="375" cy="264.7" r="2" fill="#ffd400"></circle><circle cx="375" cy="254.8" r="2" fill="#ffd400"></circle><circle cx="375" cy="245" r="2" fill="#ffd400"></circle><circle cx="375" cy="235.1" r="2" fill="#ffd400"></circle><circle cx="375" cy="225.3" r="2" fill="#ffd400"></circle><circle cx="375" cy="215.4" r="2" fill="#ffd400"></circle><circle cx="375" cy="205.6" r="2" fill="#ffd400"></circle><circle cx="258.2" cy="71.8" r="2" fill="#ffd400"></circle><circle cx="268" cy="71.8" r="2" fill="#ffd400"></circle><circle cx="277.9" cy="71.8" r="2" fill="#ffd400"></circle><circle cx="287.8" cy="71.8" r="2" fill="#ffd400"></circle><circle cx="226.2" cy="283.8" r="2" fill="#ffd400"></circle><circle cx="236" cy="283.8" r="2" fill="#ffd400"></circle><circle cx="245.9" cy="283.8" r="2" fill="#ffd400"></circle><circle cx="255.8" cy="283.8" r="2" fill="#ffd400"></circle><circle cx="186.2" cy="283.8" r="2" fill="#ffd400"></circle><circle cx="196" cy="283.8" r="2" fill="#ffd400"></circle><circle cx="205.9" cy="283.8" r="2" fill="#ffd400"></circle><circle cx="215.8" cy="283.8" r="2" fill="#ffd400"></circle><circle cx="114.7" cy="190.3" r="2" fill="#ffd400"></circle><circle cx="123.5" cy="190.3" r="2" fill="#ffd400"></circle><circle cx="132.4" cy="190.3" r="2" fill="#ffd400"></circle><circle cx="141.3" cy="190.3" r="2" fill="#ffd400"></circle><circle cx="114.7" cy="181.3" r="2" fill="#ffd400"></circle><circle cx="123.5" cy="181.3" r="2" fill="#ffd400"></circle><circle cx="132.4" cy="181.3" r="2" fill="#ffd400"></circle><circle cx="141.3" cy="181.3" r="2" fill="#ffd400"></circle><circle cx="114.7" cy="171.3" r="2" fill="#ffd400"></circle><circle cx="123.5" cy="171.3" r="2" fill="#ffd400"></circle><circle cx="132.4" cy="171.3" r="2" fill="#ffd400"></circle><circle cx="141.3" cy="171.3" r="2" fill="#ffd400"></circle><circle cx="114.7" cy="162.3" r="2" fill="#ffd400"></circle><circle cx="123.5" cy="162.3" r="2" fill="#ffd400"></circle><circle cx="132.4" cy="162.3" r="2" fill="#ffd400"></circle><circle cx="141.3" cy="162.3" r="2" fill="#ffd400"></circle><path d="M398 233.6v36h37z" fill="#ffd400"></path><path d="M297 102.6v-37c0-3.3 2.7-6 6-6h22" fill="none" stroke="#000" stroke-width="2" stroke-miterlimit="10"></path><path d="M305 102.6v-34c0-1.1.9-2 2-2h17m72 93v-94c0-3.3-2.7-6-6-6h-22" fill="none" stroke="#000" stroke-width="2" stroke-miterlimit="10"></path><path d="M388 162.6v-94c0-1.1-.9-2-2-2h-17" fill="none" stroke="#000" stroke-width="2" stroke-miterlimit="10"></path><path d="M324.5 71.1v-9s-1-6 6-6h4s3.4 0 3.9-3.1c.2-.8.4-1.6.9-2.3 1.1-1.5 3.3-3.6 7.2-3.6 3.4 0 5.5 1.6 6.7 2.9.7.8 1.2 1.9 1.5 2.9.3 1.2 1.4 3.1 4.9 3.1h4s4.5 0 4.5 4.5V71h-43.6z" fill="#fff" stroke="#000" stroke-width="2" stroke-miterlimit="10"></path><circle cx="346.5" cy="54.1" r="3"></circle><circle cx="149.3" cy="300.6" r="3" fill="#ffd400"></circle><path d="M459.1 61.3l-.5-.7v-1.3c0-1.1-.9-1.9-1.9-1.9h-4.2c-.2 0-.4-.2-.4-.2 0-.1-.1-.3 0-.5l1.6-3.1c.1-.3.2-.6.2-.9 0-1.1-.9-2-2-2h-.4c-.1 0-.3.1-.4.2l-5.2 5.6c-1.1 1.2-1.7 2.7-1.7 4.3v4.5c0 2.7 2.2 4.8 4.8 4.8h5.2c.8 0 1.6-.4 2-1.1l2.9-4.3c.3-.5.5-1 .5-1.6 0-.8-.2-1.3-.5-1.8zm-17.9-4h-2.9c-1.1 0-1.9.9-1.9 1.9V68c0 1.1.9 1.9 1.9 1.9h2.9c1.1 0 1.9-.9 1.9-1.9v-8.7c.1-1.1-.8-2-1.9-2z" fill="#0388ca"></path><circle cx="396.5" cy="176.1" r="15.5" fill="#fff" stroke="#000" stroke-width="2" stroke-miterlimit="10"></circle><path d="M381 179.6h-42m57 12h-57" fill="none" stroke="#000" stroke-width="2" stroke-miterlimit="10"></path><path fill="none" stroke="#ffd400" stroke-width="2" stroke-miterlimit="10" d="M386 176.6l6 6 13-14"></path><path d="M423.8 86l1.4.8-1.4.8c-2.2 1.2-4.1 3.1-5.3 5.3l-.8 1.4-.8-1.4c-1.2-2.2-3.1-4.1-5.3-5.3l-1.4-.8 1.4-.8c2.2-1.2 4.1-3.1 5.3-5.3l.8-1.4.8 1.4c1.3 2.3 3.1 4.1 5.3 5.3zm7.4 10.6l.8.4-.8.4c-1.3.7-2.3 1.7-3 3l-.4.8-.4-.8c-.7-1.3-1.7-2.3-3-3l-.8-.4.8-.4c1.3-.7 2.3-1.7 3-3l.4-.8.4.8c.7 1.3 1.7 2.3 3 3z" fill="#ffd400"></path><path d="M218.1 52c3-1.6 6.3-2.5 9.9-2.5 11.6 0 21 9.4 21 21s-9.4 21-21 21-21-9.4-21-21c0-5.1 1.8-9.8 4.9-13.4m251.3 28.8l10.6.8c2.2.2 3.8 2.1 3.6 4.2l-.7 9.4c-.2 2.2-2.1 3.8-4.2 3.6l-2-.1-.3 4.1c-.1.7-.9 1-1.4.5l-4.6-5-12.6-1c-2.2-.2-3.8-2.1-3.6-4.2l.7-9.4c.2-2.2 2.1-3.8 4.2-3.6l6.5.5h.6M112 223.2l-.3-4.4c-.2-2.2-2.1-3.8-4.2-3.6l-6.5.5h-.6l-3 .2-10.6.8c-2.2.2-3.8 2.1-3.6 4.2l.4 5.3.3 4.1c.2 2.2 2.1 3.8 4.2 3.6l2-.1.3 4.1c.1.7.9 1 1.4.5l4.6-5 12.6-1c2.2-.2 3.8-2.1 3.6-4.2" fill="#fff" stroke="#000" stroke-width="2" stroke-miterlimit="10"></path><circle cx="456" cy="93.9" r="2" fill="#ffd400"></circle><circle cx="462.5" cy="94.6" r="2" fill="#ffd400"></circle><circle cx="469" cy="95.2" r="2" fill="#ffd400"></circle><path d="M151.3 213.6h-19c-4.4 0-8 3.6-8 8v81c0 4.4 3.6 8 8 8h34c4.4 0 8-3.6 8-8v-42" fill="none" stroke="#000" stroke-width="2" stroke-miterlimit="10"></path><path d="M101.7 221.4c-.5-.6-1.2-.9-2-.9-.6 0-1.1.2-1.6.5-.2.2-.4.4-.6.7-.2-.3-.4-.5-.6-.7-.5-.4-1-.5-1.6-.5-.8 0-1.5.3-2 .9-.5.5-.8 1.3-.8 2.1s.3 1.6 1 2.4c.6.7 1.5 1.5 2.5 2.3.3.3.7.6 1.1 1 .1.1.2.1.4.1.1 0 .3-.1.4-.1.4-.3.8-.7 1.1-1 1-.8 1.9-1.6 2.5-2.3.7-.8 1-1.6 1-2.4-.1-.8-.3-1.5-.8-2.1zM240.5 67.9l-11.1-11.1c-.7-.7-1.7-.6-2.4 0-.6.7-.6 1.7 0 2.4l11.1 11.1c.6.6 1.7.6 2.4 0 .7-.7.7-1.7 0-2.4zm-14.2-7.2l-.1.4c-.6 2.9-2 5.7-3.9 8l6 6c2.3-1.9 5-3.4 8-4l.4-.1-10.4-10.3zm-5.2 9.7l-4.1 4.1c-1 1-1 2.6 0 3.5l2.4 2.4c1 1 2.6 1 3.5 0l4.1-4.1-5.9-5.9zm.6 6.5c-.3.3-.9.3-1.2 0s-.3-.9 0-1.2l1.2-1.2c.3-.3.9-.3 1.2 0s.3.9 0 1.2l-1.2 1.2zm8.8 4l1.1-1.1c1-1 1-2.6 0-3.5l-.8-.8c-.5.3-.9.7-1.3 1l1 1c.3.3.3.8 0 1.2l-1.2 1.2-1.7-1.6-2.4 2.4 3.8 3.7c.6.6 1.7.6 2.4 0 .6-.6.6-1.7 0-2.4l-.9-1.1z" fill="#ffd400"></path><path d="M306.2 282.6l.3 2h2.5l.3-2c-1 .3-2 .3-3.1 0zm-6.1-3.2l1.3 2.2 1.9-.7c-.7-.8-1.3-1.7-1.6-2.7l-1.6 1.2zm7.7 2.3c2.9 0 5.3-2.4 5.3-5.3s-2.4-5.3-5.3-5.3-5.3 2.4-5.3 5.3 2.4 5.3 5.3 5.3zm0-8.2c1.6 0 2.9 1.3 2.9 2.9s-1.3 2.9-2.9 2.9-2.9-1.3-2.9-2.9 1.3-2.9 2.9-2.9z" fill="#fff"></path><circle cx="307.8" cy="276.4" r="1.8" fill="#fff"></circle><path d="M315.5 273.4l-1.3-2.2-1.9.7c.7.8 1.3 1.7 1.6 2.7l1.6-1.2zm-14.6-1.4l-.8 1.4 1.5 1.3c.3-1 .8-2 1.6-2.7l-1.9-.7-.4.7zm8.5-1.8l-.3-2h-2.5l-.3 2c1-.3 2.1-.3 3.1 0zm-9.8.9h.4l.3-.5c.3-.5.9-.7 1.4-.5l1.2.4c-.5-1.4-1.8-2.3-3.3-2.3-1.9 0-3.5 1.6-3.5 3.5 1.1-.4 2.3-.6 3.5-.6zm12.8 9.8l1.9.7 1.3-2.2-1.5-1.3c-.4 1.1-.9 2-1.7 2.8zm-16.8 16.5c.3 2 2 3.5 4.1 3.5 2 0 3.8-1.5 4.1-3.5h-8.2z" fill="#fff"></path><path d="M309 288.1v-2.3h-2.4c-.6 0-1.1-.4-1.2-1l-.4-2.6c-.2-.1-.5-.3-.7-.4l-2.5.9c-.1 0-.3.1-.4.1-.4 0-.8-.2-1-.6l-1.3-2.2c-.3-.5-.2-1.1.3-1.5l2.1-1.7v-.8l-2.1-1.7c-.4-.4-.6-1-.3-1.5l.3-.5c-5.1.1-9.1 4.3-9.1 9.3v6.4c-.2 2.7-1.3 5.2-3.1 7.2-.2.2-.2.4-.1.7.1.2.3.3.5.3h24.1c.2 0 .4-.1.5-.3s.1-.5-.1-.7c-1.9-1.9-3-4.4-3.1-7.1zm-17 7h-2.3c-.3 0-.6-.3-.6-.6s.3-.6.6-.6h2.3c.3 0 .6.3.6.6s-.3.6-.6.6zm0-12.9c-.3 0-.6-.3-.6-.6 0-2.5 1.1-4.8 3.1-6.4.2-.1.4-.2.6-.1s.3.3.4.5c0 .2-.1.4-.2.5-1.7 1.3-2.6 3.3-2.6 5.5 0 .2-.1.3-.2.4s-.3.2-.5.2zm17.6 12.9h-15.2c-.3 0-.6-.3-.6-.6s.3-.6.6-.6h15.2c.3 0 .6.3.6.6s-.3.6-.6.6z" fill="#fff"></path><path d="M354 311.6h73m-247-255h-72" fill="none" stroke="#0388ca" stroke-width="2" stroke-miterlimit="10"></path><path d="M208 156.6l43-19 44 20s3 61-44 86c0 0-45-21-43-87z" fill="#ffd400"></path><circle cx="250.6" cy="169.1" r="20.5" fill="#fff" stroke="#000" stroke-width="2" stroke-miterlimit="10"></circle><circle cx="250.6" cy="164.1" r="7.5" fill="#0388ca"></circle><path d="M234.6 182.6c.7-.9 6.8-8.3 17-8 8.7.2 14.1 6 15 7" fill="none" stroke="#000" stroke-width="2" stroke-miterlimit="10"></path><path d="M223.1 200.6h55m-55 11h55" fill="none" stroke-width="2" stroke-miterlimit="10" stroke="#fff"></path></svg>